<svg id="arrow-left" xmlns="http://www.w3.org/2000/svg" width="53.002" height="15.753" viewBox="0 0 53.002 15.753">
  <path id="Path_2" data-name="Path 2" d="M4.829,10.454a1.125,1.125,0,0,0,0,1.593L10.784,18,4.828,23.954a1.126,1.126,0,1,0,1.593,1.593l6.75-6.75a1.125,1.125,0,0,0,0-1.593l-6.75-6.75a1.125,1.125,0,0,0-1.593,0Z" transform="translate(39.5 -10.123)" fill="#fff" fill-rule="evenodd"/>
  <path id="Path_3" data-name="Path 3" d="M50.6,18a1.125,1.125,0,0,0-1.125-1.125H6.75a1.125,1.125,0,1,0,0,2.25H49.476A1.125,1.125,0,0,0,50.6,18Z" transform="translate(-5.625 -10.123)" fill="#fff" fill-rule="evenodd"/>
</svg>
